<?xml version="1.0" standalone="no"?>
<!DOCTYPE svg PUBLIC "-//W3C//DTD SVG 20010904//EN"
 "http://www.w3.org/TR/2001/REC-SVG-20010904/DTD/svg10.dtd">
<svg version="1.0" xmlns="http://www.w3.org/2000/svg"
 width="512.000000pt" height="512.000000pt" viewBox="0 0 512.000000 512.000000"
 preserveAspectRatio="xMidYMid meet">

<g transform="translate(0.000000,512.000000) scale(0.100000,-0.100000)"
fill="#000000" stroke="none">
<path d="M2685 4950 c-456 -31 -914 -209 -1270 -495 -130 -104 -334 -317 -422
-441 l-23 -32 43 -28 c23 -15 80 -66 126 -113 l84 -85 16 24 c120 184 364 416
572 545 218 135 488 237 727 272 75 12 55 33 196 -209 54 -93 101 -168 105
-168 3 0 57 87 120 194 l113 193 92 -15 c186 -29 423 -110 596 -205 526 -286
902 -810 995 -1387 9 -51 11 -88 5 -94 -5 -5 -91 -58 -192 -117 -101 -59 -182
-111 -180 -116 1 -4 84 -56 183 -115 100 -58 186 -111 191 -116 15 -15 -34
-249 -78 -382 -93 -279 -257 -543 -469 -755 -84 -85 -261 -230 -320 -262 -15
-9 -14 -15 7 -74 18 -53 22 -84 22 -181 l0 -117 56 31 c76 43 192 121 275 186
91 72 296 277 369 370 708 899 649 2172 -139 2991 -476 494 -1122 746 -1800
701z"/>
<path d="M535 3827 c-109 -37 -199 -106 -367 -284 -103 -109 -117 -127 -137
-188 -121 -370 153 -1075 663 -1705 234 -289 553 -604 841 -831 501 -394 1066
-649 1445 -651 126 -1 199 13 262 50 114 66 335 299 393 414 86 173 42 323
-149 505 -150 143 -352 268 -474 294 -150 31 -247 -9 -418 -173 -133 -128
-160 -139 -262 -114 -173 43 -426 232 -772 576 -440 439 -639 750 -580 904 5
14 58 77 118 139 143 149 177 214 176 332 -1 63 -7 95 -29 150 -86 214 -306
480 -459 555 -77 38 -182 49 -251 27z"/>
<path d="M2136 3454 c-112 -27 -215 -98 -287 -197 -16 -22 -29 -46 -29 -53 0
-12 199 -154 216 -154 4 0 24 20 46 45 58 65 95 81 180 77 37 -3 86 -47 97
-89 20 -70 -16 -114 -204 -249 -273 -196 -362 -361 -329 -608 l7 -46 438 0
439 0 0 135 0 135 -270 0 c-252 0 -269 1 -263 18 12 33 69 84 180 158 189 126
273 215 312 332 36 107 19 250 -39 332 -101 142 -305 210 -494 164z"/>
<path d="M3306 3413 c-14 -21 -124 -195 -245 -387 l-221 -350 0 -93 0 -93 280
0 280 0 0 -155 0 -155 155 0 155 0 0 155 0 155 75 0 75 0 0 125 0 125 -75 0
-75 0 0 355 0 355 -190 0 -190 0 -24 -37z m96 -465 l-4 -208 -120 0 c-97 0
-119 3 -115 14 3 7 53 86 111 175 57 89 110 178 116 197 7 20 13 34 14 32 1
-2 0 -96 -2 -210z"/>
</g>
</svg>
